<svg width="1181" height="380" viewBox="0 0 1181 380" fill="none" xmlns="http://www.w3.org/2000/svg">
<path d="M47.016 354V282.672H53.112C56.248 282.672 59.368 282.544 62.472 282.288C65.576 282.032 68.824 281.904 72.216 281.904C77.72 281.904 82.44 282.72 86.376 284.352C90.312 285.952 93.336 288.544 95.448 292.128C97.592 295.712 98.664 300.432 98.664 306.288C98.664 314.448 96.216 320.768 91.32 325.248C86.456 329.728 79.4 331.968 70.152 331.968C68.136 331.968 66.488 331.952 65.208 331.92C63.96 331.888 62.92 331.872 62.088 331.872V354H47.016ZM62.088 320.64C63.304 320.8 64.552 320.912 65.832 320.976C67.144 321.04 68.488 321.072 69.864 321.072C72.424 321.072 74.76 320.64 76.872 319.776C79.016 318.912 80.712 317.408 81.96 315.264C83.24 313.12 83.88 310.112 83.88 306.24C83.88 301.696 82.696 298.224 80.328 295.824C77.96 293.424 74.392 292.304 69.624 292.464C68.408 292.496 67.128 292.56 65.784 292.656C64.44 292.752 63.208 292.912 62.088 293.136V320.64ZM205.641 354V282.672H249.177V294H220.617V311.904H242.265V322.992H220.617V342.432H252.201V354H205.641ZM373.974 354V294.192H353.67V282.672H409.398V294.192H389.094V354H373.974ZM511.505 318.528C511.505 312.544 512.417 307.28 514.241 302.736C516.065 298.16 518.593 294.336 521.825 291.264C525.057 288.16 528.785 285.824 533.009 284.256C537.265 282.688 541.809 281.904 546.641 281.904C550.065 281.904 552.929 282.096 555.233 282.48C557.569 282.832 559.521 283.232 561.089 283.68C562.689 284.096 564.113 284.432 565.361 284.688L563.345 297.744C562.737 297.36 561.809 296.864 560.561 296.256C559.345 295.616 557.681 295.056 555.569 294.576C553.489 294.064 550.881 293.808 547.745 293.808C543.681 293.808 540.081 294.752 536.945 296.64C533.809 298.528 531.345 301.248 529.553 304.8C527.761 308.352 526.865 312.64 526.865 317.664C526.865 322.688 527.681 327.104 529.313 330.912C530.977 334.72 533.409 337.712 536.609 339.888C539.809 342.032 543.713 343.104 548.321 343.104C550.465 343.104 552.641 342.864 554.849 342.384C557.057 341.904 559.025 341.328 560.753 340.656C562.481 339.952 563.761 339.264 564.593 338.592V351.024C563.313 351.536 561.841 352.08 560.177 352.656C558.513 353.232 556.593 353.728 554.417 354.144C552.273 354.56 549.777 354.768 546.929 354.768C539.505 354.768 533.153 353.28 527.873 350.304C522.593 347.296 518.545 343.072 515.729 337.632C512.913 332.192 511.505 325.824 511.505 318.528ZM680.569 354H664.777L690.601 282.048H706.825L732.601 354H716.569L700.777 303.504L698.569 295.248L696.313 303.504L680.569 354ZM679.417 338.88L681.385 328.176H714.121L716.089 338.88H679.417ZM851.415 354H836.391V282.672C837.031 282.672 837.655 282.672 838.263 282.672C838.903 282.672 839.527 282.672 840.135 282.672C840.775 282.672 841.415 282.672 842.055 282.672C844.487 282.672 847.319 282.544 850.551 282.288C853.783 282.032 857.655 281.904 862.167 281.904C865.495 281.904 868.695 282.272 871.767 283.008C874.839 283.712 877.575 284.896 879.975 286.56C882.407 288.192 884.327 290.4 885.735 293.184C887.143 295.968 887.847 299.424 887.847 303.552C887.847 308.192 887.079 312.048 885.543 315.12C884.007 318.16 881.847 320.544 879.063 322.272C876.311 323.968 873.079 325.104 869.367 325.68C868.087 325.872 866.791 326.064 865.479 326.256C864.167 326.416 862.439 326.56 860.295 326.688C858.151 326.784 855.191 326.832 851.415 326.832V354ZM851.415 316.272C852.087 316.368 853.031 316.448 854.247 316.512C855.463 316.576 856.695 316.608 857.943 316.608C859.223 316.608 860.247 316.608 861.015 316.608C865.079 316.608 868.119 315.472 870.135 313.2C872.183 310.896 873.207 307.808 873.207 303.936C873.207 301.76 872.823 299.824 872.055 298.128C871.319 296.4 870.007 295.056 868.119 294.096C866.231 293.104 863.591 292.608 860.199 292.608C858.695 292.608 857.175 292.688 855.639 292.848C854.103 292.976 852.695 293.184 851.415 293.472V316.272ZM876.087 354C875.671 353.456 875.303 352.848 874.983 352.176C874.695 351.472 874.199 350.352 873.495 348.816C872.503 346.672 871.575 344.352 870.711 341.856C869.879 339.36 868.999 336.976 868.071 334.704C867.143 332.432 866.071 330.544 864.855 329.04C863.639 327.536 862.167 326.72 860.439 326.592L864.663 323.28L874.023 322.656C875.847 323.456 877.447 324.832 878.823 326.784C880.231 328.704 881.511 330.928 882.663 333.456C883.847 335.984 884.999 338.592 886.119 341.28C887.271 343.968 888.503 346.464 889.815 348.768C890.295 349.664 890.775 350.544 891.255 351.408C891.767 352.272 892.263 353.136 892.743 354H876.087ZM999.047 354V282.672H1042.58V294H1014.02V311.904H1035.67V322.992H1014.02V342.432H1045.61V354H999.047Z" fill="#0D0D0D"/>
<path d="M221.3 188.5C221.3 179.05 222.75 170.775 225.65 163.675C228.55 156.525 232.6 150.55 237.8 145.75C243 140.95 249.05 137.35 255.95 134.95C262.85 132.55 270.3 131.35 278.3 131.35C283.45 131.35 287.75 131.65 291.2 132.25C294.7 132.8 297.7 133.425 300.2 134.125C302.75 134.825 305.15 135.4 307.4 135.85L303.8 159.85C302.75 159.15 301.25 158.3 299.3 157.3C297.4 156.25 294.9 155.35 291.8 154.6C288.75 153.8 285 153.4 280.55 153.4C274.85 153.4 269.7 154.7 265.1 157.3C260.5 159.85 256.85 163.625 254.15 168.625C251.45 173.575 250.1 179.65 250.1 186.85C250.1 194.2 251.275 200.625 253.625 206.125C256.025 211.625 259.575 215.925 264.275 219.025C268.975 222.075 274.8 223.6 281.75 223.6C284.9 223.6 288.1 223.225 291.35 222.475C294.6 221.675 297.525 220.725 300.125 219.625C302.725 218.525 304.65 217.45 305.9 216.4V239.35C304 240.15 301.75 241 299.15 241.9C296.6 242.8 293.625 243.575 290.225 244.225C286.825 244.875 282.95 245.2 278.6 245.2C266.3 245.2 255.875 242.875 247.325 238.225C238.825 233.575 232.35 227 227.9 218.5C223.5 210 221.3 200 221.3 188.5ZM346.933 244H317.683L356.533 131.8H388.183L427.333 244H397.783L375.433 168.85L371.833 154.3L368.083 168.85L346.933 244ZM341.983 223.15L345.133 203.65H396.283L399.283 223.15H341.983ZM384.733 121.9C381.933 121.9 379.458 121.375 377.308 120.325C375.208 119.275 373.283 118.075 371.533 116.725C369.783 115.375 368.108 114.175 366.508 113.125C364.908 112.075 363.233 111.55 361.483 111.55C360.083 111.55 358.833 111.825 357.733 112.375C356.633 112.875 355.633 113.725 354.733 114.925C353.833 116.075 352.983 117.65 352.183 119.65L342.283 116.2C342.283 112 343.158 108.35 344.908 105.25C346.708 102.1 349.008 99.675 351.808 97.975C354.608 96.225 357.583 95.35 360.733 95.35C363.533 95.35 365.983 95.875 368.083 96.925C370.233 97.975 372.158 99.175 373.858 100.525C375.608 101.875 377.258 103.075 378.808 104.125C380.358 105.175 381.983 105.7 383.683 105.7C384.933 105.7 386.108 105.475 387.208 105.025C388.358 104.575 389.408 103.775 390.358 102.625C391.308 101.425 392.183 99.75 392.983 97.6L402.883 101.05C402.883 105.25 402.033 108.925 400.333 112.075C398.633 115.175 396.383 117.6 393.583 119.35C390.833 121.05 387.883 121.9 384.733 121.9ZM486.972 245.2C475.972 245.4 466.572 243.175 458.772 238.525C451.022 233.825 445.122 227.15 441.072 218.5C437.072 209.8 435.172 199.55 435.372 187.75C435.622 174.55 438.047 163.875 442.647 155.725C447.297 147.525 453.622 141.5 461.622 137.65C469.622 133.75 478.772 131.65 489.072 131.35C499.622 131.05 508.672 133.2 516.222 137.8C523.772 142.35 529.522 148.925 533.472 157.525C537.472 166.125 539.372 176.3 539.172 188.05C538.922 201.25 536.572 212.025 532.122 220.375C527.672 228.725 521.572 234.9 513.822 238.9C506.072 242.9 497.122 245 486.972 245.2ZM487.422 225.1C494.622 225.1 500.297 222.2 504.447 216.4C508.597 210.55 510.672 200.85 510.672 187.3C510.672 180.3 509.872 174.15 508.272 168.85C506.672 163.55 504.247 159.425 500.997 156.475C497.747 153.525 493.622 152.05 488.622 152.05C484.072 152.05 479.922 153.175 476.172 155.425C472.422 157.675 469.422 161.45 467.172 166.75C464.972 172.05 463.872 179.3 463.872 188.5C463.872 195.6 464.747 201.9 466.497 207.4C468.247 212.9 470.847 217.225 474.297 220.375C477.797 223.525 482.172 225.1 487.422 225.1ZM584.827 244V154H555.127V132.55H642.727V154H613.027V244H584.827ZM665.873 244V132.55H694.073V244H665.873ZM727.098 244V132.55H753.198L791.298 193.75L805.548 223.75H800.448L795.948 181.6V132.55H821.298V244H793.248L757.098 184.3L740.748 150.1H746.898L752.448 195.85V244H727.098ZM852.811 244V132.55H880.861V177.7H919.111V132.55H947.011V244H919.111V197.8H880.861V244H852.811ZM1024.42 245.2C1013.42 245.4 1004.02 243.175 996.223 238.525C988.473 233.825 982.573 227.15 978.523 218.5C974.523 209.8 972.623 199.55 972.823 187.75C973.073 174.55 975.498 163.875 980.098 155.725C984.748 147.525 991.073 141.5 999.073 137.65C1007.07 133.75 1016.22 131.65 1026.52 131.35C1037.07 131.05 1046.12 133.2 1053.67 137.8C1061.22 142.35 1066.97 148.925 1070.92 157.525C1074.92 166.125 1076.82 176.3 1076.62 188.05C1076.37 201.25 1074.02 212.025 1069.57 220.375C1065.12 228.725 1059.02 234.9 1051.27 238.9C1043.52 242.9 1034.57 245 1024.42 245.2ZM1024.87 225.1C1032.07 225.1 1037.75 222.2 1041.9 216.4C1046.05 210.55 1048.12 200.85 1048.12 187.3C1048.12 180.3 1047.32 174.15 1045.72 168.85C1044.12 163.55 1041.7 159.425 1038.45 156.475C1035.2 153.525 1031.07 152.05 1026.07 152.05C1021.52 152.05 1017.37 153.175 1013.62 155.425C1009.87 157.675 1006.87 161.45 1004.62 166.75C1002.42 172.05 1001.32 179.3 1001.32 188.5C1001.32 195.6 1002.2 201.9 1003.95 207.4C1005.7 212.9 1008.3 217.225 1011.75 220.375C1015.25 223.525 1019.62 225.1 1024.87 225.1Z" fill="#F24E1E"/>
<rect x="68" y="62" width="95" height="52" fill="#F24E1E"/>
<path fill-rule="evenodd" clip-rule="evenodd" d="M58.4774 52.0798C26.6034 80.702 0.322401 104.469 0.0748433 104.894C-0.27678 105.499 0.549787 106.878 3.85514 111.205L8.08517 116.742L12.058 113.172C14.2434 111.209 17.8477 107.945 20.067 105.919C22.2867 103.893 24.2232 102.366 24.3703 102.525C24.5175 102.685 26.4498 134.526 28.6641 173.283C30.8784 212.041 32.7071 243.808 32.7273 243.876C32.7479 243.944 39.7694 244 48.3303 244H63.8966L64.0429 210.327L64.1886 176.653L65.4544 171.683C70.2887 152.699 83.4106 137.612 100.302 131.618C127.894 121.826 157.617 138.164 166.82 168.181C169.284 176.219 169.38 177.858 169.38 212.256V244H184.967C193.539 244 200.569 243.944 200.588 243.876C200.608 243.808 202.437 212.04 204.653 173.282C206.869 134.524 208.797 102.688 208.938 102.536C209.078 102.384 212.8 105.508 217.209 109.478L225.226 116.697L229.613 110.973L234 105.25L228.394 100.17C214.943 87.9834 116.674 -0.0352782 116.558 1.06081e-05C116.488 0.0213827 90.3514 23.4571 58.4774 52.0798ZM94.8831 71.6034C96.6481 74.6184 98.4681 77.6249 98.9279 78.2849L99.7632 79.4847H116.659H133.555L134.39 78.2849C134.85 77.6249 136.67 74.6184 138.435 71.6034C140.2 68.5885 141.792 66.1093 141.972 66.0934C142.212 66.0725 151.829 72.6616 153.281 73.8425C153.378 73.921 151.76 76.7958 149.685 80.2303C147.294 84.1876 146.015 86.7637 146.192 87.2647C146.346 87.6991 147.913 90.4506 149.674 93.3791C151.435 96.307 152.876 98.9423 152.876 99.234C152.876 99.6813 142.42 107.318 141.807 107.318C141.694 107.318 139.867 104.411 137.747 100.857L133.893 94.3955H116.659H99.4248L95.5707 100.857C93.4509 104.411 91.6281 107.318 91.5199 107.318C90.9267 107.318 80.4422 99.654 80.4422 99.2201C80.4422 98.9358 81.8831 96.307 83.6444 93.3791C85.4053 90.4506 86.9722 87.6991 87.1262 87.2647C87.3032 86.7637 86.0242 84.1876 83.6329 80.2303C81.558 76.7958 79.9397 73.9255 80.0365 73.852C82.2182 72.1954 91.1711 66.073 91.382 66.0934C91.5424 66.1093 93.1181 68.5885 94.8831 71.6034ZM108.865 144.539C96.445 147.515 86.98 155.543 81.5837 167.679C77.8002 176.187 77.9849 174.062 77.8103 211.072L77.6544 244H116.659H155.664L155.508 211.072C155.332 173.8 155.544 176.111 151.478 167.21C144.976 152.973 132.654 144.41 117.805 143.81C114 143.656 111.805 143.835 108.865 144.539Z" fill="#F24E1E"/>
</svg>
